ISO-10303-21;
HEADER;
/* Generated by software containing ST-Developer
 * from STEP Tools, Inc. (www.steptools.com) 
 */

FILE_DESCRIPTION(
/* description */ (''),
/* implementation_level */ '2;1');

FILE_NAME(
/* name */ 'Outer Case.step',
/* time_stamp */ '2026-09-07T15:43:00+12:00',
/* author */ (''),
/* organization */ (''),
/* preprocessor_version */ 'ST-DEVELOPER v20.2',
/* originating_system */ 'Autodesk Translation Framework v15.15.0.0',
/* authorisation */ '');

FILE_SCHEMA (('AUTOMOTIVE_DESIGN { 1 0 10303 214 3 1 1 }'));
ENDSEC;

DATA;
#10=MECHANICAL_DESIGN_GEOMETRIC_PRESENTATION_REPRESENTATION('',(#13),#743);
#11=SHAPE_REPRESENTATION_RELATIONSHIP('SRR','None',#750,#12);
#12=ADVANCED_BREP_SHAPE_REPRESENTATION('',(#14),#742);
#13=STYLED_ITEM('',(#759),#14);
#14=MANIFOLD_SOLID_BREP('Body1',#443);
#15=FACE_BOUND('',#76,.T.);
#16=FACE_BOUND('',#77,.T.);
#17=FACE_BOUND('',#78,.T.);
#18=FACE_BOUND('',#79,.T.);
#19=FACE_BOUND('',#95,.T.);
#20=FACE_BOUND('',#96,.T.);
#21=FACE_BOUND('',#97,.T.);
#22=FACE_BOUND('',#98,.T.);
#23=CIRCLE('',#463,2.);
#24=CIRCLE('',#464,2.);
#25=CIRCLE('',#466,2.);
#26=CIRCLE('',#467,2.);
#27=CIRCLE('',#468,2.);
#28=CIRCLE('',#469,1.2645);
#29=CIRCLE('',#470,1.2645);
#30=CIRCLE('',#471,1.2645);
#31=CIRCLE('',#472,1.2645);
#32=CIRCLE('',#474,2.);
#33=CIRCLE('',#476,2.);
#34=CIRCLE('',#479,2.);
#35=CIRCLE('',#484,1.2645);
#36=CIRCLE('',#486,1.2645);
#37=CIRCLE('',#488,1.2645);
#38=CIRCLE('',#490,1.2645);
#39=CYLINDRICAL_SURFACE('',#462,2.);
#40=CYLINDRICAL_SURFACE('',#473,2.);
#41=CYLINDRICAL_SURFACE('',#475,2.);
#42=CYLINDRICAL_SURFACE('',#478,2.);
#43=CYLINDRICAL_SURFACE('',#483,1.2645);
#44=CYLINDRICAL_SURFACE('',#485,1.2645);
#45=CYLINDRICAL_SURFACE('',#487,1.2645);
#46=CYLINDRICAL_SURFACE('',#489,1.2645);
#47=FACE_OUTER_BOUND('',#69,.T.);
#48=FACE_OUTER_BOUND('',#70,.T.);
#49=FACE_OUTER_BOUND('',#71,.T.);
#50=FACE_OUTER_BOUND('',#72,.T.);
#51=FACE_OUTER_BOUND('',#73,.T.);
#52=FACE_OUTER_BOUND('',#74,.T.);
#53=FACE_OUTER_BOUND('',#75,.T.);
#54=FACE_OUTER_BOUND('',#80,.T.);
#55=FACE_OUTER_BOUND('',#81,.T.);
#56=FACE_OUTER_BOUND('',#82,.T.);
#57=FACE_OUTER_BOUND('',#83,.T.);
#58=FACE_OUTER_BOUND('',#84,.T.);
#59=FACE_OUTER_BOUND('',#85,.T.);
#60=FACE_OUTER_BOUND('',#86,.T.);
#61=FACE_OUTER_BOUND('',#87,.T.);
#62=FACE_OUTER_BOUND('',#88,.T.);
#63=FACE_OUTER_BOUND('',#89,.T.);
#64=FACE_OUTER_BOUND('',#90,.T.);
#65=FACE_OUTER_BOUND('',#91,.T.);
#66=FACE_OUTER_BOUND('',#92,.T.);
#67=FACE_OUTER_BOUND('',#93,.T.);
#68=FACE_OUTER_BOUND('',#94,.T.);
#69=EDGE_LOOP('',(#287,#288,#289,#290));
#70=EDGE_LOOP('',(#291,#292,#293,#294));
#71=EDGE_LOOP('',(#295,#296,#297,#298,#299,#300,#301,#302));
#72=EDGE_LOOP('',(#303,#304,#305,#306));
#73=EDGE_LOOP('',(#307,#308,#309,#310));
#74=EDGE_LOOP('',(#311,#312,#313,#314));
#75=EDGE_LOOP('',(#315,#316,#317,#318,#319,#320,#321,#322,#323,#324,#325,
#326,#327,#328,#329,#330));
#76=EDGE_LOOP('',(#331));
#77=EDGE_LOOP('',(#332));
#78=EDGE_LOOP('',(#333));
#79=EDGE_LOOP('',(#334));
#80=EDGE_LOOP('',(#335,#336,#337,#338));
#81=EDGE_LOOP('',(#339,#340,#341,#342));
#82=EDGE_LOOP('',(#343,#344,#345,#346));
#83=EDGE_LOOP('',(#347,#348,#349,#350));
#84=EDGE_LOOP('',(#351,#352,#353,#354));
#85=EDGE_LOOP('',(#355,#356,#357,#358));
#86=EDGE_LOOP('',(#359,#360,#361,#362));
#87=EDGE_LOOP('',(#363,#364,#365,#366));
#88=EDGE_LOOP('',(#367,#368,#369,#370));
#89=EDGE_LOOP('',(#371,#372,#373,#374));
#90=EDGE_LOOP('',(#375,#376,#377,#378));
#91=EDGE_LOOP('',(#379,#380,#381,#382));
#92=EDGE_LOOP('',(#383,#384,#385,#386));
#93=EDGE_LOOP('',(#387,#388,#389,#390,#391,#392,#393,#394));
#94=EDGE_LOOP('',(#395,#396,#397,#398,#399,#400,#401,#402));
#95=EDGE_LOOP('',(#403));
#96=EDGE_LOOP('',(#404));
#97=EDGE_LOOP('',(#405));
#98=EDGE_LOOP('',(#406));
#99=LINE('',#621,#143);
#100=LINE('',#623,#144);
#101=LINE('',#625,#145);
#102=LINE('',#626,#146);
#103=LINE('',#629,#147);
#104=LINE('',#631,#148);
#105=LINE('',#632,#149);
#106=LINE('',#635,#150);
#107=LINE('',#637,#151);
#108=LINE('',#639,#152);
#109=LINE('',#641,#153);
#110=LINE('',#643,#154);
#111=LINE('',#645,#155);
#112=LINE('',#646,#156);
#113=LINE('',#649,#157);
#114=LINE('',#651,#158);
#115=LINE('',#652,#159);
#116=LINE('',#655,#160);
#117=LINE('',#657,#161);
#118=LINE('',#658,#162);
#119=LINE('',#663,#163);
#120=LINE('',#669,#164);
#121=LINE('',#673,#165);
#122=LINE('',#676,#166);
#123=LINE('',#678,#167);
#124=LINE('',#680,#168);
#125=LINE('',#681,#169);
#126=LINE('',#693,#170);
#127=LINE('',#696,#171);
#128=LINE('',#699,#172);
#129=LINE('',#702,#173);
#130=LINE('',#703,#174);
#131=LINE('',#706,#175);
#132=LINE('',#710,#176);
#133=LINE('',#711,#177);
#134=LINE('',#714,#178);
#135=LINE('',#715,#179);
#136=LINE('',#717,#180);
#137=LINE('',#720,#181);
#138=LINE('',#724,#182);
#139=LINE('',#728,#183);
#140=LINE('',#732,#184);
#141=LINE('',#735,#185);
#142=LINE('',#737,#186);
#143=VECTOR('',#499,10.);
#144=VECTOR('',#500,10.);
#145=VECTOR('',#501,10.);
#146=VECTOR('',#502,10.);
#147=VECTOR('',#505,10.);
#148=VECTOR('',#506,10.);
#149=VECTOR('',#507,10.);
#150=VECTOR('',#510,10.);
#151=VECTOR('',#511,10.);
#152=VECTOR('',#512,10.);
#153=VECTOR('',#513,10.);
#154=VECTOR('',#514,10.);
#155=VECTOR('',#515,10.);
#156=VECTOR('',#516,10.);
#157=VECTOR('',#519,10.);
#158=VECTOR('',#520,10.);
#159=VECTOR('',#521,10.);
#160=VECTOR('',#524,10.);
#161=VECTOR('',#525,10.);
#162=VECTOR('',#526,10.);
#163=VECTOR('',#531,10.);
#164=VECTOR('',#538,10.);
#165=VECTOR('',#541,10.);
#166=VECTOR('',#544,10.);
#167=VECTOR('',#545,10.);
#168=VECTOR('',#546,10.);
#169=VECTOR('',#547,10.);
#170=VECTOR('',#560,10.);
#171=VECTOR('',#563,10.);
#172=VECTOR('',#566,10.);
#173=VECTOR('',#569,10.);
#174=VECTOR('',#570,10.);
#175=VECTOR('',#573,10.);
#176=VECTOR('',#578,10.);
#177=VECTOR('',#579,10.);
#178=VECTOR('',#582,10.);
#179=VECTOR('',#583,10.);
#180=VECTOR('',#586,10.);
#181=VECTOR('',#589,1.45);
#182=VECTOR('',#594,1.45);
#183=VECTOR('',#599,1.45);
#184=VECTOR('',#604,1.45);
#185=VECTOR('',#609,10.);
#186=VECTOR('',#612,10.);
#187=VERTEX_POINT('',#619);
#188=VERTEX_POINT('',#620);
#189=VERTEX_POINT('',#622);
#190=VERTEX_POINT('',#624);
#191=VERTEX_POINT('',#628);
#192=VERTEX_POINT('',#630);
#193=VERTEX_POINT('',#634);
#194=VERTEX_POINT('',#636);
#195=VERTEX_POINT('',#638);
#196=VERTEX_POINT('',#640);
#197=VERTEX_POINT('',#642);
#198=VERTEX_POINT('',#644);
#199=VERTEX_POINT('',#648);
#200=VERTEX_POINT('',#650);
#201=VERTEX_POINT('',#654);
#202=VERTEX_POINT('',#656);
#203=VERTEX_POINT('',#660);
#204=VERTEX_POINT('',#662);
#205=VERTEX_POINT('',#666);
#206=VERTEX_POINT('',#668);
#207=VERTEX_POINT('',#670);
#208=VERTEX_POINT('',#672);
#209=VERTEX_POINT('',#674);
#210=VERTEX_POINT('',#677);
#211=VERTEX_POINT('',#679);
#212=VERTEX_POINT('',#682);
#213=VERTEX_POINT('',#684);
#214=VERTEX_POINT('',#686);
#215=VERTEX_POINT('',#688);
#216=VERTEX_POINT('',#691);
#217=VERTEX_POINT('',#695);
#218=VERTEX_POINT('',#697);
#219=VERTEX_POINT('',#701);
#220=VERTEX_POINT('',#705);
#221=VERTEX_POINT('',#709);
#222=VERTEX_POINT('',#713);
#223=VERTEX_POINT('',#719);
#224=VERTEX_POINT('',#723);
#225=VERTEX_POINT('',#727);
#226=VERTEX_POINT('',#731);
#227=EDGE_CURVE('',#187,#188,#99,.T.);
#228=EDGE_CURVE('',#189,#187,#100,.T.);
#229=EDGE_CURVE('',#190,#189,#101,.T.);
#230=EDGE_CURVE('',#188,#190,#102,.T.);
#231=EDGE_CURVE('',#191,#189,#103,.T.);
#232=EDGE_CURVE('',#192,#191,#104,.T.);
#233=EDGE_CURVE('',#190,#192,#105,.T.);
#234=EDGE_CURVE('',#188,#193,#106,.T.);
#235=EDGE_CURVE('',#193,#194,#107,.T.);
#236=EDGE_CURVE('',#195,#194,#108,.T.);
#237=EDGE_CURVE('',#196,#195,#109,.T.);
#238=EDGE_CURVE('',#196,#197,#110,.T.);
#239=EDGE_CURVE('',#198,#197,#111,.T.);
#240=EDGE_CURVE('',#187,#198,#112,.T.);
#241=EDGE_CURVE('',#199,#193,#113,.T.);
#242=EDGE_CURVE('',#200,#199,#114,.T.);
#243=EDGE_CURVE('',#194,#200,#115,.T.);
#244=EDGE_CURVE('',#201,#199,#116,.T.);
#245=EDGE_CURVE('',#201,#202,#117,.T.);
#246=EDGE_CURVE('',#200,#202,#118,.T.);
#247=EDGE_CURVE('',#195,#203,#23,.T.);
#248=EDGE_CURVE('',#203,#204,#119,.T.);
#249=EDGE_CURVE('',#204,#196,#24,.T.);
#250=EDGE_CURVE('',#205,#198,#25,.T.);
#251=EDGE_CURVE('',#205,#206,#120,.T.);
#252=EDGE_CURVE('',#207,#206,#26,.T.);
#253=EDGE_CURVE('',#207,#208,#121,.T.);
#254=EDGE_CURVE('',#209,#208,#27,.T.);
#255=EDGE_CURVE('',#209,#203,#122,.T.);
#256=EDGE_CURVE('',#202,#210,#123,.T.);
#257=EDGE_CURVE('',#210,#211,#124,.T.);
#258=EDGE_CURVE('',#211,#191,#125,.T.);
#259=EDGE_CURVE('',#212,#212,#28,.F.);
#260=EDGE_CURVE('',#213,#213,#29,.F.);
#261=EDGE_CURVE('',#214,#214,#30,.F.);
#262=EDGE_CURVE('',#215,#215,#31,.F.);
#263=EDGE_CURVE('',#197,#216,#32,.T.);
#264=EDGE_CURVE('',#216,#205,#126,.T.);
#265=EDGE_CURVE('',#208,#217,#127,.T.);
#266=EDGE_CURVE('',#217,#218,#33,.T.);
#267=EDGE_CURVE('',#218,#209,#128,.T.);
#268=EDGE_CURVE('',#219,#207,#129,.T.);
#269=EDGE_CURVE('',#219,#217,#130,.T.);
#270=EDGE_CURVE('',#206,#220,#131,.T.);
#271=EDGE_CURVE('',#220,#219,#34,.T.);
#272=EDGE_CURVE('',#221,#201,#132,.T.);
#273=EDGE_CURVE('',#221,#210,#133,.T.);
#274=EDGE_CURVE('',#222,#221,#134,.T.);
#275=EDGE_CURVE('',#222,#211,#135,.T.);
#276=EDGE_CURVE('',#192,#222,#136,.T.);
#277=EDGE_CURVE('',#215,#223,#137,.T.);
#278=EDGE_CURVE('',#223,#223,#35,.F.);
#279=EDGE_CURVE('',#214,#224,#138,.T.);
#280=EDGE_CURVE('',#224,#224,#36,.F.);
#281=EDGE_CURVE('',#213,#225,#139,.T.);
#282=EDGE_CURVE('',#225,#225,#37,.F.);
#283=EDGE_CURVE('',#212,#226,#140,.T.);
#284=EDGE_CURVE('',#226,#226,#38,.F.);
#285=EDGE_CURVE('',#216,#220,#141,.T.);
#286=EDGE_CURVE('',#218,#204,#142,.T.);
#287=ORIENTED_EDGE('',*,*,#227,.F.);
#288=ORIENTED_EDGE('',*,*,#228,.F.);
#289=ORIENTED_EDGE('',*,*,#229,.F.);
#290=ORIENTED_EDGE('',*,*,#230,.F.);
#291=ORIENTED_EDGE('',*,*,#229,.T.);
#292=ORIENTED_EDGE('',*,*,#231,.F.);
#293=ORIENTED_EDGE('',*,*,#232,.F.);
#294=ORIENTED_EDGE('',*,*,#233,.F.);
#295=ORIENTED_EDGE('',*,*,#227,.T.);
#296=ORIENTED_EDGE('',*,*,#234,.T.);
#297=ORIENTED_EDGE('',*,*,#235,.T.);
#298=ORIENTED_EDGE('',*,*,#236,.F.);
#299=ORIENTED_EDGE('',*,*,#237,.F.);
#300=ORIENTED_EDGE('',*,*,#238,.T.);
#301=ORIENTED_EDGE('',*,*,#239,.F.);
#302=ORIENTED_EDGE('',*,*,#240,.F.);
#303=ORIENTED_EDGE('',*,*,#235,.F.);
#304=ORIENTED_EDGE('',*,*,#241,.F.);
#305=ORIENTED_EDGE('',*,*,#242,.F.);
#306=ORIENTED_EDGE('',*,*,#243,.F.);
#307=ORIENTED_EDGE('',*,*,#242,.T.);
#308=ORIENTED_EDGE('',*,*,#244,.F.);
#309=ORIENTED_EDGE('',*,*,#245,.T.);
#310=ORIENTED_EDGE('',*,*,#246,.F.);
#311=ORIENTED_EDGE('',*,*,#247,.T.);
#312=ORIENTED_EDGE('',*,*,#248,.T.);
#313=ORIENTED_EDGE('',*,*,#249,.T.);
#314=ORIENTED_EDGE('',*,*,#237,.T.);
#315=ORIENTED_EDGE('',*,*,#228,.T.);
#316=ORIENTED_EDGE('',*,*,#240,.T.);
#317=ORIENTED_EDGE('',*,*,#250,.F.);
#318=ORIENTED_EDGE('',*,*,#251,.T.);
#319=ORIENTED_EDGE('',*,*,#252,.F.);
#320=ORIENTED_EDGE('',*,*,#253,.T.);
#321=ORIENTED_EDGE('',*,*,#254,.F.);
#322=ORIENTED_EDGE('',*,*,#255,.T.);
#323=ORIENTED_EDGE('',*,*,#247,.F.);
#324=ORIENTED_EDGE('',*,*,#236,.T.);
#325=ORIENTED_EDGE('',*,*,#243,.T.);
#326=ORIENTED_EDGE('',*,*,#246,.T.);
#327=ORIENTED_EDGE('',*,*,#256,.T.);
#328=ORIENTED_EDGE('',*,*,#257,.T.);
#329=ORIENTED_EDGE('',*,*,#258,.T.);
#330=ORIENTED_EDGE('',*,*,#231,.T.);
#331=ORIENTED_EDGE('',*,*,#259,.T.);
#332=ORIENTED_EDGE('',*,*,#260,.T.);
#333=ORIENTED_EDGE('',*,*,#261,.T.);
#334=ORIENTED_EDGE('',*,*,#262,.T.);
#335=ORIENTED_EDGE('',*,*,#250,.T.);
#336=ORIENTED_EDGE('',*,*,#239,.T.);
#337=ORIENTED_EDGE('',*,*,#263,.T.);
#338=ORIENTED_EDGE('',*,*,#264,.T.);
#339=ORIENTED_EDGE('',*,*,#254,.T.);
#340=ORIENTED_EDGE('',*,*,#265,.T.);
#341=ORIENTED_EDGE('',*,*,#266,.T.);
#342=ORIENTED_EDGE('',*,*,#267,.T.);
#343=ORIENTED_EDGE('',*,*,#265,.F.);
#344=ORIENTED_EDGE('',*,*,#253,.F.);
#345=ORIENTED_EDGE('',*,*,#268,.F.);
#346=ORIENTED_EDGE('',*,*,#269,.T.);
#347=ORIENTED_EDGE('',*,*,#252,.T.);
#348=ORIENTED_EDGE('',*,*,#270,.T.);
#349=ORIENTED_EDGE('',*,*,#271,.T.);
#350=ORIENTED_EDGE('',*,*,#268,.T.);
#351=ORIENTED_EDGE('',*,*,#272,.F.);
#352=ORIENTED_EDGE('',*,*,#273,.T.);
#353=ORIENTED_EDGE('',*,*,#256,.F.);
#354=ORIENTED_EDGE('',*,*,#245,.F.);
#355=ORIENTED_EDGE('',*,*,#274,.F.);
#356=ORIENTED_EDGE('',*,*,#275,.T.);
#357=ORIENTED_EDGE('',*,*,#257,.F.);
#358=ORIENTED_EDGE('',*,*,#273,.F.);
#359=ORIENTED_EDGE('',*,*,#276,.F.);
#360=ORIENTED_EDGE('',*,*,#232,.T.);
#361=ORIENTED_EDGE('',*,*,#258,.F.);
#362=ORIENTED_EDGE('',*,*,#275,.F.);
#363=ORIENTED_EDGE('',*,*,#262,.F.);
#364=ORIENTED_EDGE('',*,*,#277,.T.);
#365=ORIENTED_EDGE('',*,*,#278,.T.);
#366=ORIENTED_EDGE('',*,*,#277,.F.);
#367=ORIENTED_EDGE('',*,*,#261,.F.);
#368=ORIENTED_EDGE('',*,*,#279,.T.);
#369=ORIENTED_EDGE('',*,*,#280,.T.);
#370=ORIENTED_EDGE('',*,*,#279,.F.);
#371=ORIENTED_EDGE('',*,*,#260,.F.);
#372=ORIENTED_EDGE('',*,*,#281,.T.);
#373=ORIENTED_EDGE('',*,*,#282,.T.);
#374=ORIENTED_EDGE('',*,*,#281,.F.);
#375=ORIENTED_EDGE('',*,*,#259,.F.);
#376=ORIENTED_EDGE('',*,*,#283,.T.);
#377=ORIENTED_EDGE('',*,*,#284,.T.);
#378=ORIENTED_EDGE('',*,*,#283,.F.);
#379=ORIENTED_EDGE('',*,*,#264,.F.);
#380=ORIENTED_EDGE('',*,*,#285,.T.);
#381=ORIENTED_EDGE('',*,*,#270,.F.);
#382=ORIENTED_EDGE('',*,*,#251,.F.);
#383=ORIENTED_EDGE('',*,*,#248,.F.);
#384=ORIENTED_EDGE('',*,*,#255,.F.);
#385=ORIENTED_EDGE('',*,*,#267,.F.);
#386=ORIENTED_EDGE('',*,*,#286,.T.);
#387=ORIENTED_EDGE('',*,*,#272,.T.);
#388=ORIENTED_EDGE('',*,*,#244,.T.);
#389=ORIENTED_EDGE('',*,*,#241,.T.);
#390=ORIENTED_EDGE('',*,*,#234,.F.);
#391=ORIENTED_EDGE('',*,*,#230,.T.);
#392=ORIENTED_EDGE('',*,*,#233,.T.);
#393=ORIENTED_EDGE('',*,*,#276,.T.);
#394=ORIENTED_EDGE('',*,*,#274,.T.);
#395=ORIENTED_EDGE('',*,*,#249,.F.);
#396=ORIENTED_EDGE('',*,*,#286,.F.);
#397=ORIENTED_EDGE('',*,*,#266,.F.);
#398=ORIENTED_EDGE('',*,*,#269,.F.);
#399=ORIENTED_EDGE('',*,*,#271,.F.);
#400=ORIENTED_EDGE('',*,*,#285,.F.);
#401=ORIENTED_EDGE('',*,*,#263,.F.);
#402=ORIENTED_EDGE('',*,*,#238,.F.);
#403=ORIENTED_EDGE('',*,*,#278,.F.);
#404=ORIENTED_EDGE('',*,*,#280,.F.);
#405=ORIENTED_EDGE('',*,*,#282,.F.);
#406=ORIENTED_EDGE('',*,*,#284,.F.);
#407=PLANE('',#457);
#408=PLANE('',#458);
#409=PLANE('',#459);
#410=PLANE('',#460);
#411=PLANE('',#461);
#412=PLANE('',#465);
#413=PLANE('',#477);
#414=PLANE('',#480);
#415=PLANE('',#481);
#416=PLANE('',#482);
#417=PLANE('',#491);
#418=PLANE('',#492);
#419=PLANE('',#493);
#420=PLANE('',#494);
#421=ADVANCED_FACE('',(#47),#407,.F.);
#422=ADVANCED_FACE('',(#48),#408,.T.);
#423=ADVANCED_FACE('',(#49),#409,.T.);
#424=ADVANCED_FACE('',(#50),#410,.F.);
#425=ADVANCED_FACE('',(#51),#411,.T.);
#426=ADVANCED_FACE('',(#52),#39,.T.);
#427=ADVANCED_FACE('',(#53,#15,#16,#17,#18),#412,.T.);
#428=ADVANCED_FACE('',(#54),#40,.T.);
#429=ADVANCED_FACE('',(#55),#41,.T.);
#430=ADVANCED_FACE('',(#56),#413,.T.);
#431=ADVANCED_FACE('',(#57),#42,.T.);
#432=ADVANCED_FACE('',(#58),#414,.T.);
#433=ADVANCED_FACE('',(#59),#415,.T.);
#434=ADVANCED_FACE('',(#60),#416,.T.);
#435=ADVANCED_FACE('',(#61),#43,.F.);
#436=ADVANCED_FACE('',(#62),#44,.F.);
#437=ADVANCED_FACE('',(#63),#45,.F.);
#438=ADVANCED_FACE('',(#64),#46,.F.);
#439=ADVANCED_FACE('',(#65),#417,.T.);
#440=ADVANCED_FACE('',(#66),#418,.T.);
#441=ADVANCED_FACE('',(#67),#419,.T.);
#442=ADVANCED_FACE('',(#68,#19,#20,#21,#22),#420,.F.);
#443=CLOSED_SHELL('',(#421,#422,#423,#424,#425,#426,#427,#428,#429,#430,
#431,#432,#433,#434,#435,#436,#437,#438,#439,#440,#441,#442));
#444=DERIVED_UNIT_ELEMENT(#446,1.);
#445=DERIVED_UNIT_ELEMENT(#745,-3.);
#446=(
MASS_UNIT()
NAMED_UNIT(*)
SI_UNIT(.KILO.,.GRAM.)
);
#447=DERIVED_UNIT((#444,#445));
#448=MEASURE_REPRESENTATION_ITEM('density measure',
POSITIVE_RATIO_MEASURE(7850.),#447);
#449=PROPERTY_DEFINITION_REPRESENTATION(#454,#451);
#450=PROPERTY_DEFINITION_REPRESENTATION(#455,#452);
#451=REPRESENTATION('material name',(#453),#742);
#452=REPRESENTATION('density',(#448),#742);
#453=DESCRIPTIVE_REPRESENTATION_ITEM('Steel','Steel');
#454=PROPERTY_DEFINITION('material property','material name',#752);
#455=PROPERTY_DEFINITION('material property','density of part',#752);
#456=AXIS2_PLACEMENT_3D('',#617,#495,#496);
#457=AXIS2_PLACEMENT_3D('',#618,#497,#498);
#458=AXIS2_PLACEMENT_3D('',#627,#503,#504);
#459=AXIS2_PLACEMENT_3D('',#633,#508,#509);
#460=AXIS2_PLACEMENT_3D('',#647,#517,#518);
#461=AXIS2_PLACEMENT_3D('',#653,#522,#523);
#462=AXIS2_PLACEMENT_3D('',#659,#527,#528);
#463=AXIS2_PLACEMENT_3D('',#661,#529,#530);
#464=AXIS2_PLACEMENT_3D('',#664,#532,#533);
#465=AXIS2_PLACEMENT_3D('',#665,#534,#535);
#466=AXIS2_PLACEMENT_3D('',#667,#536,#537);
#467=AXIS2_PLACEMENT_3D('',#671,#539,#540);
#468=AXIS2_PLACEMENT_3D('',#675,#542,#543);
#469=AXIS2_PLACEMENT_3D('',#683,#548,#549);
#470=AXIS2_PLACEMENT_3D('',#685,#550,#551);
#471=AXIS2_PLACEMENT_3D('',#687,#552,#553);
#472=AXIS2_PLACEMENT_3D('',#689,#554,#555);
#473=AXIS2_PLACEMENT_3D('',#690,#556,#557);
#474=AXIS2_PLACEMENT_3D('',#692,#558,#559);
#475=AXIS2_PLACEMENT_3D('',#694,#561,#562);
#476=AXIS2_PLACEMENT_3D('',#698,#564,#565);
#477=AXIS2_PLACEMENT_3D('',#700,#567,#568);
#478=AXIS2_PLACEMENT_3D('',#704,#571,#572);
#479=AXIS2_PLACEMENT_3D('',#707,#574,#575);
#480=AXIS2_PLACEMENT_3D('',#708,#576,#577);
#481=AXIS2_PLACEMENT_3D('',#712,#580,#581);
#482=AXIS2_PLACEMENT_3D('',#716,#584,#585);
#483=AXIS2_PLACEMENT_3D('',#718,#587,#588);
#484=AXIS2_PLACEMENT_3D('',#721,#590,#591);
#485=AXIS2_PLACEMENT_3D('',#722,#592,#593);
#486=AXIS2_PLACEMENT_3D('',#725,#595,#596);
#487=AXIS2_PLACEMENT_3D('',#726,#597,#598);
#488=AXIS2_PLACEMENT_3D('',#729,#600,#601);
#489=AXIS2_PLACEMENT_3D('',#730,#602,#603);
#490=AXIS2_PLACEMENT_3D('',#733,#605,#606);
#491=AXIS2_PLACEMENT_3D('',#734,#607,#608);
#492=AXIS2_PLACEMENT_3D('',#736,#610,#611);
#493=AXIS2_PLACEMENT_3D('',#738,#613,#614);
#494=AXIS2_PLACEMENT_3D('',#739,#615,#616);
#495=DIRECTION('axis',(0.,0.,1.));
#496=DIRECTION('refdir',(1.,0.,0.));
#497=DIRECTION('center_axis',(0.,-1.,0.));
#498=DIRECTION('ref_axis',(0.,0.,-1.));
#499=DIRECTION('',(0.,0.,-1.));
#500=DIRECTION('',(-1.,0.,0.));
#501=DIRECTION('',(0.,0.,1.));
#502=DIRECTION('',(1.,0.,0.));
#503=DIRECTION('center_axis',(1.,-4.45574458043541E-16,0.));
#504=DIRECTION('ref_axis',(4.45574458043541E-16,1.,0.));
#505=DIRECTION('',(4.45574458043541E-16,1.,0.));
#506=DIRECTION('',(0.,0.,1.));
#507=DIRECTION('',(-4.45574458043541E-16,-1.,0.));
#508=DIRECTION('center_axis',(-1.,3.339016615414E-16,0.));
#509=DIRECTION('ref_axis',(-3.339016615414E-16,-1.,0.));
#510=DIRECTION('',(3.339016615414E-16,1.,0.));
#511=DIRECTION('',(0.,0.,1.));
#512=DIRECTION('',(-3.339016615414E-16,-1.,0.));
#513=DIRECTION('',(0.,0.,1.));
#514=DIRECTION('',(-3.339016615414E-16,-1.,0.));
#515=DIRECTION('',(0.,0.,-1.));
#516=DIRECTION('',(-3.339016615414E-16,-1.,0.));
#517=DIRECTION('center_axis',(0.,1.,0.));
#518=DIRECTION('ref_axis',(0.,0.,1.));
#519=DIRECTION('',(-1.,0.,0.));
#520=DIRECTION('',(0.,0.,-1.));
#521=DIRECTION('',(1.,0.,0.));
#522=DIRECTION('center_axis',(1.,-4.45574458043541E-16,0.));
#523=DIRECTION('ref_axis',(4.45574458043541E-16,1.,0.));
#524=DIRECTION('',(-4.45574458043541E-16,-1.,0.));
#525=DIRECTION('',(0.,0.,1.));
#526=DIRECTION('',(4.45574458043541E-16,1.,0.));
#527=DIRECTION('center_axis',(0.,0.,1.));
#528=DIRECTION('ref_axis',(-0.707106781186546,0.707106781186549,0.));
#529=DIRECTION('center_axis',(0.,0.,-1.));
#530=DIRECTION('ref_axis',(-0.707106781186546,0.707106781186549,0.));
#531=DIRECTION('',(0.,0.,-1.));
#532=DIRECTION('center_axis',(0.,0.,1.));
#533=DIRECTION('ref_axis',(-0.707106781186546,0.707106781186549,0.));
#534=DIRECTION('center_axis',(0.,0.,1.));
#535=DIRECTION('ref_axis',(1.,0.,0.));
#536=DIRECTION('center_axis',(0.,0.,-1.));
#537=DIRECTION('ref_axis',(-0.707106781186549,-0.707106781186546,0.));
#538=DIRECTION('',(1.,-3.97217540116335E-17,0.));
#539=DIRECTION('center_axis',(0.,0.,-1.));
#540=DIRECTION('ref_axis',(0.707106781186546,-0.707106781186549,0.));
#541=DIRECTION('',(-1.11300553847133E-16,1.,0.));
#542=DIRECTION('center_axis',(0.,0.,-1.));
#543=DIRECTION('ref_axis',(0.707106781186546,0.707106781186549,0.));
#544=DIRECTION('',(-1.,-3.97217540116335E-17,0.));
#545=DIRECTION('',(1.,0.,0.));
#546=DIRECTION('',(-2.97049638695694E-16,-1.,0.));
#547=DIRECTION('',(-1.,0.,0.));
#548=DIRECTION('center_axis',(0.,0.,1.));
#549=DIRECTION('ref_axis',(1.,0.,0.));
#550=DIRECTION('center_axis',(0.,0.,1.));
#551=DIRECTION('ref_axis',(1.,0.,0.));
#552=DIRECTION('center_axis',(0.,0.,1.));
#553=DIRECTION('ref_axis',(1.,0.,0.));
#554=DIRECTION('center_axis',(0.,0.,1.));
#555=DIRECTION('ref_axis',(1.,0.,0.));
#556=DIRECTION('center_axis',(0.,0.,1.));
#557=DIRECTION('ref_axis',(-0.707106781186549,-0.707106781186546,0.));
#558=DIRECTION('center_axis',(0.,0.,1.));
#559=DIRECTION('ref_axis',(-0.707106781186549,-0.707106781186546,0.));
#560=DIRECTION('',(0.,0.,1.));
#561=DIRECTION('center_axis',(0.,0.,1.));
#562=DIRECTION('ref_axis',(0.707106781186546,0.707106781186549,0.));
#563=DIRECTION('',(0.,0.,-1.));
#564=DIRECTION('center_axis',(0.,0.,1.));
#565=DIRECTION('ref_axis',(0.707106781186546,0.707106781186549,0.));
#566=DIRECTION('',(0.,0.,1.));
#567=DIRECTION('center_axis',(1.,1.11300553847133E-16,0.));
#568=DIRECTION('ref_axis',(-1.11300553847133E-16,1.,0.));
#569=DIRECTION('',(0.,0.,1.));
#570=DIRECTION('',(-1.11300553847133E-16,1.,0.));
#571=DIRECTION('center_axis',(0.,0.,1.));
#572=DIRECTION('ref_axis',(0.707106781186546,-0.707106781186549,0.));
#573=DIRECTION('',(0.,0.,-1.));
#574=DIRECTION('center_axis',(0.,0.,1.));
#575=DIRECTION('ref_axis',(0.707106781186546,-0.707106781186549,0.));
#576=DIRECTION('center_axis',(0.,-1.,0.));
#577=DIRECTION('ref_axis',(1.,0.,0.));
#578=DIRECTION('',(-1.,0.,0.));
#579=DIRECTION('',(0.,0.,1.));
#580=DIRECTION('center_axis',(-1.,2.97049638695694E-16,0.));
#581=DIRECTION('ref_axis',(-2.97049638695694E-16,-1.,0.));
#582=DIRECTION('',(2.97049638695694E-16,1.,0.));
#583=DIRECTION('',(0.,0.,1.));
#584=DIRECTION('center_axis',(0.,1.,0.));
#585=DIRECTION('ref_axis',(-1.,0.,0.));
#586=DIRECTION('',(1.,0.,0.));
#587=DIRECTION('center_axis',(0.,0.,1.));
#588=DIRECTION('ref_axis',(1.,0.,0.));
#589=DIRECTION('',(0.,0.,-1.));
#590=DIRECTION('center_axis',(0.,0.,1.));
#591=DIRECTION('ref_axis',(1.,0.,0.));
#592=DIRECTION('center_axis',(0.,0.,1.));
#593=DIRECTION('ref_axis',(1.,0.,0.));
#594=DIRECTION('',(0.,0.,-1.));
#595=DIRECTION('center_axis',(0.,0.,1.));
#596=DIRECTION('ref_axis',(1.,0.,0.));
#597=DIRECTION('center_axis',(0.,0.,1.));
#598=DIRECTION('ref_axis',(1.,0.,0.));
#599=DIRECTION('',(0.,0.,-1.));
#600=DIRECTION('center_axis',(0.,0.,1.));
#601=DIRECTION('ref_axis',(1.,0.,0.));
#602=DIRECTION('center_axis',(0.,0.,1.));
#603=DIRECTION('ref_axis',(1.,0.,0.));
#604=DIRECTION('',(0.,0.,-1.));
#605=DIRECTION('center_axis',(0.,0.,1.));
#606=DIRECTION('ref_axis',(1.,0.,0.));
#607=DIRECTION('center_axis',(-3.97217540116335E-17,-1.,0.));
#608=DIRECTION('ref_axis',(1.,-3.97217540116335E-17,0.));
#609=DIRECTION('',(1.,-3.97217540116335E-17,0.));
#610=DIRECTION('center_axis',(-3.97217540116335E-17,1.,0.));
#611=DIRECTION('ref_axis',(-1.,-3.97217540116335E-17,0.));
#612=DIRECTION('',(-1.,-3.97217540116335E-17,0.));
#613=DIRECTION('center_axis',(0.,0.,1.));
#614=DIRECTION('ref_axis',(1.,0.,0.));
#615=DIRECTION('center_axis',(0.,0.,1.));
#616=DIRECTION('ref_axis',(1.,0.,0.));
#617=CARTESIAN_POINT('',(0.,0.,0.));
#618=CARTESIAN_POINT('Origin',(-55.9,-11.0000001192093,13.0000001937151));
#619=CARTESIAN_POINT('',(-55.9,-11.0000001192093,13.0000001937151));
#620=CARTESIAN_POINT('',(-55.9,-11.0000001192093,3.));
#621=CARTESIAN_POINT('',(-55.9,-11.0000001192093,6.50000009685755));
#622=CARTESIAN_POINT('',(-45.9,-11.0000001192093,13.0000001937151));
#623=CARTESIAN_POINT('',(-27.95,-11.0000001192093,13.));
#624=CARTESIAN_POINT('',(-45.9,-11.0000001192093,3.));
#625=CARTESIAN_POINT('',(-45.9,-11.0000001192093,6.50000009685755));
#626=CARTESIAN_POINT('',(-55.9,-11.0000001192093,3.));
#627=CARTESIAN_POINT('Origin',(-45.9,-29.9,0.));
#628=CARTESIAN_POINT('',(-45.9,-29.9,13.));
#629=CARTESIAN_POINT('',(-45.9,29.9,13.));
#630=CARTESIAN_POINT('',(-45.9,-29.9,3.));
#631=CARTESIAN_POINT('',(-45.9,-29.9,0.));
#632=CARTESIAN_POINT('',(-45.9,-14.95,3.));
#633=CARTESIAN_POINT('Origin',(-55.9,39.9,0.));
#634=CARTESIAN_POINT('',(-55.9,14.000000089407,3.));
#635=CARTESIAN_POINT('',(-55.9,15.9499999403954,3.));
#636=CARTESIAN_POINT('',(-55.9,14.000000089407,13.0000001937151));
#637=CARTESIAN_POINT('',(-55.9,14.000000089407,1.5));
#638=CARTESIAN_POINT('',(-55.9,37.9,13.));
#639=CARTESIAN_POINT('',(-55.9,39.9,13.));
#640=CARTESIAN_POINT('',(-55.9,37.9,0.));
#641=CARTESIAN_POINT('',(-55.9,37.9,0.));
#642=CARTESIAN_POINT('',(-55.9,-37.9,0.));
#643=CARTESIAN_POINT('',(-55.9,39.9,0.));
#644=CARTESIAN_POINT('',(-55.9,-37.9,13.));
#645=CARTESIAN_POINT('',(-55.9,-37.9,0.));
#646=CARTESIAN_POINT('',(-55.9,39.9,13.));
#647=CARTESIAN_POINT('Origin',(-55.9,14.000000089407,3.));
#648=CARTESIAN_POINT('',(-45.9,14.000000089407,3.));
#649=CARTESIAN_POINT('',(-55.9,14.000000089407,3.));
#650=CARTESIAN_POINT('',(-45.9,14.000000089407,13.0000001937151));
#651=CARTESIAN_POINT('',(-45.9,14.000000089407,1.5));
#652=CARTESIAN_POINT('',(-27.95,14.000000089407,13.));
#653=CARTESIAN_POINT('Origin',(-45.9,-29.9,0.));
#654=CARTESIAN_POINT('',(-45.9,29.9,3.));
#655=CARTESIAN_POINT('',(-45.9,-14.95,3.));
#656=CARTESIAN_POINT('',(-45.9,29.9,13.));
#657=CARTESIAN_POINT('',(-45.9,29.9,0.));
#658=CARTESIAN_POINT('',(-45.9,29.9,13.));
#659=CARTESIAN_POINT('Origin',(-53.9,37.9,0.));
#660=CARTESIAN_POINT('',(-53.9,39.9,13.));
#661=CARTESIAN_POINT('Origin',(-53.9,37.9,13.));
#662=CARTESIAN_POINT('',(-53.9,39.9,0.));
#663=CARTESIAN_POINT('',(-53.9,39.9,0.));
#664=CARTESIAN_POINT('Origin',(-53.9,37.9,0.));
#665=CARTESIAN_POINT('Origin',(-8.88178419700125E-15,-4.44089209850063E-15,
13.));
#666=CARTESIAN_POINT('',(-53.9,-39.9,13.));
#667=CARTESIAN_POINT('Origin',(-53.9,-37.9,13.));
#668=CARTESIAN_POINT('',(53.9,-39.9,13.));
#669=CARTESIAN_POINT('',(-55.9,-39.9,13.));
#670=CARTESIAN_POINT('',(55.9,-37.9,13.));
#671=CARTESIAN_POINT('Origin',(53.9,-37.9,13.));
#672=CARTESIAN_POINT('',(55.9,37.9,13.));
#673=CARTESIAN_POINT('',(55.9,-39.9,13.));
#674=CARTESIAN_POINT('',(53.9,39.9,13.));
#675=CARTESIAN_POINT('Origin',(53.9,37.9,13.));
#676=CARTESIAN_POINT('',(55.9,39.9,13.));
#677=CARTESIAN_POINT('',(45.9,29.9,13.));
#678=CARTESIAN_POINT('',(45.9,29.9,13.));
#679=CARTESIAN_POINT('',(45.9,-29.9,13.));
#680=CARTESIAN_POINT('',(45.9,-29.9,13.));
#681=CARTESIAN_POINT('',(-45.9,-29.9,13.));
#682=CARTESIAN_POINT('',(-52.1645479502299,34.9000479502299,13.));
#683=CARTESIAN_POINT('Origin',(-50.9000479502299,34.9000479502299,13.));
#684=CARTESIAN_POINT('',(49.6355,-34.9,13.));
#685=CARTESIAN_POINT('Origin',(50.9,-34.9,13.));
#686=CARTESIAN_POINT('',(-52.1645,-34.9,13.));
#687=CARTESIAN_POINT('Origin',(-50.9,-34.9,13.));
#688=CARTESIAN_POINT('',(49.6355,34.9,13.));
#689=CARTESIAN_POINT('Origin',(50.9,34.9,13.));
#690=CARTESIAN_POINT('Origin',(-53.9,-37.9,0.));
#691=CARTESIAN_POINT('',(-53.9,-39.9,0.));
#692=CARTESIAN_POINT('Origin',(-53.9,-37.9,0.));
#693=CARTESIAN_POINT('',(-53.9,-39.9,0.));
#694=CARTESIAN_POINT('Origin',(53.9,37.9,0.));
#695=CARTESIAN_POINT('',(55.9,37.9,0.));
#696=CARTESIAN_POINT('',(55.9,37.9,0.));
#697=CARTESIAN_POINT('',(53.9,39.9,0.));
#698=CARTESIAN_POINT('Origin',(53.9,37.9,0.));
#699=CARTESIAN_POINT('',(53.9,39.9,0.));
#700=CARTESIAN_POINT('Origin',(55.9,-39.9,0.));
#701=CARTESIAN_POINT('',(55.9,-37.9,0.));
#702=CARTESIAN_POINT('',(55.9,-37.9,0.));
#703=CARTESIAN_POINT('',(55.9,-39.9,0.));
#704=CARTESIAN_POINT('Origin',(53.9,-37.9,0.));
#705=CARTESIAN_POINT('',(53.9,-39.9,0.));
#706=CARTESIAN_POINT('',(53.9,-39.9,0.));
#707=CARTESIAN_POINT('Origin',(53.9,-37.9,0.));
#708=CARTESIAN_POINT('Origin',(-45.9,29.9,0.));
#709=CARTESIAN_POINT('',(45.9,29.9,3.));
#710=CARTESIAN_POINT('',(-22.95,29.9,3.));
#711=CARTESIAN_POINT('',(45.9,29.9,0.));
#712=CARTESIAN_POINT('Origin',(45.9,29.9,0.));
#713=CARTESIAN_POINT('',(45.9,-29.9,3.));
#714=CARTESIAN_POINT('',(45.9,14.95,3.));
#715=CARTESIAN_POINT('',(45.9,-29.9,0.));
#716=CARTESIAN_POINT('Origin',(45.9,-29.9,0.));
#717=CARTESIAN_POINT('',(22.95,-29.9,3.));
#718=CARTESIAN_POINT('Origin',(50.9,34.9,0.));
#719=CARTESIAN_POINT('',(49.6355,34.9,0.));
#720=CARTESIAN_POINT('',(49.6355,34.9,0.));
#721=CARTESIAN_POINT('Origin',(50.9,34.9,0.));
#722=CARTESIAN_POINT('Origin',(-50.9,-34.9,0.));
#723=CARTESIAN_POINT('',(-52.1645,-34.9,0.));
#724=CARTESIAN_POINT('',(-52.1645,-34.9,0.));
#725=CARTESIAN_POINT('Origin',(-50.9,-34.9,0.));
#726=CARTESIAN_POINT('Origin',(50.9,-34.9,0.));
#727=CARTESIAN_POINT('',(49.6355,-34.9,0.));
#728=CARTESIAN_POINT('',(49.6355,-34.9,0.));
#729=CARTESIAN_POINT('Origin',(50.9,-34.9,0.));
#730=CARTESIAN_POINT('Origin',(-50.9000479502299,34.9000479502299,0.));
#731=CARTESIAN_POINT('',(-52.1645479502299,34.9000479502299,0.));
#732=CARTESIAN_POINT('',(-52.1645479502299,34.9000479502299,0.));
#733=CARTESIAN_POINT('Origin',(-50.9000479502299,34.9000479502299,0.));
#734=CARTESIAN_POINT('Origin',(-55.9,-39.9,0.));
#735=CARTESIAN_POINT('',(-55.9,-39.9,0.));
#736=CARTESIAN_POINT('Origin',(55.9,39.9,0.));
#737=CARTESIAN_POINT('',(55.9,39.9,0.));
#738=CARTESIAN_POINT('Origin',(-8.88178419700125E-15,-4.44089209850063E-15,
3.));
#739=CARTESIAN_POINT('Origin',(-8.88178419700125E-15,-4.44089209850063E-15,
0.));
#740=UNCERTAINTY_MEASURE_WITH_UNIT(LENGTH_MEASURE(0.01),#744,
'DISTANCE_ACCURACY_VALUE',
'Maximum model space distance between geometric entities at asserted c
onnectivities');
#741=UNCERTAINTY_MEASURE_WITH_UNIT(LENGTH_MEASURE(0.01),#744,
'DISTANCE_ACCURACY_VALUE',
'Maximum model space distance between geometric entities at asserted c
onnectivities');
#742=(
GEOMETRIC_REPRESENTATION_CONTEXT(3)
GLOBAL_UNCERTAINTY_ASSIGNED_CONTEXT((#740))
GLOBAL_UNIT_ASSIGNED_CONTEXT((#744,#746,#747))
REPRESENTATION_CONTEXT('','3D')
);
#743=(
GEOMETRIC_REPRESENTATION_CONTEXT(3)
GLOBAL_UNCERTAINTY_ASSIGNED_CONTEXT((#741))
GLOBAL_UNIT_ASSIGNED_CONTEXT((#744,#746,#747))
REPRESENTATION_CONTEXT('','3D')
);
#744=(
LENGTH_UNIT()
NAMED_UNIT(*)
SI_UNIT(.MILLI.,.METRE.)
);
#745=(
LENGTH_UNIT()
NAMED_UNIT(*)
SI_UNIT($,.METRE.)
);
#746=(
NAMED_UNIT(*)
PLANE_ANGLE_UNIT()
SI_UNIT($,.RADIAN.)
);
#747=(
NAMED_UNIT(*)
SI_UNIT($,.STERADIAN.)
SOLID_ANGLE_UNIT()
);
#748=SHAPE_DEFINITION_REPRESENTATION(#749,#750);
#749=PRODUCT_DEFINITION_SHAPE('',$,#752);
#750=SHAPE_REPRESENTATION('',(#456),#742);
#751=PRODUCT_DEFINITION_CONTEXT('part definition',#756,'design');
#752=PRODUCT_DEFINITION('PCB Board Case','PCB Board Case v7',#753,#751);
#753=PRODUCT_DEFINITION_FORMATION('',$,#758);
#754=PRODUCT_RELATED_PRODUCT_CATEGORY('PCB Board Case v7',
'PCB Board Case v7',(#758));
#755=APPLICATION_PROTOCOL_DEFINITION('international standard',
'automotive_design',2009,#756);
#756=APPLICATION_CONTEXT(
'Core Data for Automotive Mechanical Design Process');
#757=PRODUCT_CONTEXT('part definition',#756,'mechanical');
#758=PRODUCT('PCB Board Case','PCB Board Case v7',$,(#757));
#759=PRESENTATION_STYLE_ASSIGNMENT((#760));
#760=SURFACE_STYLE_USAGE(.BOTH.,#761);
#761=SURFACE_SIDE_STYLE('',(#762));
#762=SURFACE_STYLE_FILL_AREA(#763);
#763=FILL_AREA_STYLE('Steel - Satin',(#764));
#764=FILL_AREA_STYLE_COLOUR('Steel - Satin',#765);
#765=COLOUR_RGB('Steel - Satin',0.627450980392157,0.627450980392157,0.627450980392157);
ENDSEC;
END-ISO-10303-21;
